<?xml version="1.0" encoding="UTF-8"?><svg id="Layer_1" xmlns="http://www.w3.org/2000/svg" viewBox="0 0 32 32"><path d="M1.46,28.5424h29.085c.666,0,1.208-.5415,1.208-1.2075V3.9725c0-.666-.542-1.2075-1.208-1.2075H1.46c-.666,0-1.207.5415-1.207,1.2075v23.3623c0,.666.541,1.2075,1.207,1.2075ZM30.545,28.0424H1.46c-.3896,0-.707-.3174-.707-.7075V6.9349h30.5v20.3999c0,.3901-.3174.7075-.708.7075ZM1.46,3.265h29.085c.3906,0,.708.3174.708.7075v2.4624H.753v-2.4624c0-.3901.3174-.7075.707-.7075Z" style="fill:#fff;"/><path d="M3.3604,6.2748c.7598,0,1.3779-.6182,1.3779-1.3779,0-.7603-.6182-1.3784-1.3779-1.3784s-1.3779.6182-1.3779,1.3784c0,.7598.6182,1.3779,1.3779,1.3779ZM3.3604,4.0184c.4844,0,.8779.394.8779.8784,0,.4839-.3936.8779-.8779.8779s-.8779-.394-.8779-.8779c0-.4844.3936-.8784.8779-.8784Z" style="fill:#fff;"/><path d="M7.0577,6.2748c.7607,0,1.3789-.6182,1.3789-1.3779,0-.7603-.6182-1.3784-1.3789-1.3784-.7598,0-1.3779.6182-1.3779,1.3784,0,.7598.6182,1.3779,1.3779,1.3779ZM7.0577,4.0184c.4844,0,.8789.394.8789.8784,0,.4839-.3945.8779-.8789.8779s-.8779-.394-.8779-.8779c0-.4844.3936-.8784.8779-.8784Z" style="fill:#fff;"/><path d="M10.7549,6.2748c.7607,0,1.3789-.6182,1.3789-1.3779,0-.7603-.6182-1.3784-1.3789-1.3784-.7598,0-1.3779.6182-1.3779,1.3784,0,.7598.6182,1.3779,1.3779,1.3779ZM10.7549,4.0184c.4844,0,.8789.394.8789.8784,0,.4839-.3945.8779-.8789.8779s-.8779-.394-.8779-.8779c0-.4844.3936-.8784.8779-.8784Z" style="fill:#fff;"/><path d="M5.9366,18.9056c-.5127,0-.9307.4175-.9307.9307s.418.9307.9307.9307.9307-.4175.9307-.9307-.418-.9307-.9307-.9307ZM5.9366,20.267c-.2373,0-.4307-.1934-.4307-.4307s.1934-.4307.4307-.4307.4307.1934.4307.4307-.1934.4307-.4307.4307Z" style="fill:#fff;"/><path d="M16.1583,13.6176c-1.7842,0-3.2363,1.4517-3.2363,3.2358s1.4521,3.2354,3.2363,3.2354,3.2354-1.4512,3.2354-3.2354-1.4512-3.2358-3.2354-3.2358ZM16.1583,19.5888c-1.5088,0-2.7363-1.2271-2.7363-2.7354s1.2275-2.7358,2.7363-2.7358c1.5078,0,2.7354,1.2271,2.7354,2.7358s-1.2275,2.7354-2.7354,2.7354Z" style="fill:#fff;"/><path d="M9.4024,14.1176c.7305,0,1.418.2847,1.9346.8013.0977.0977.2559.0977.3535,0s.0977-.2559,0-.3535c-.6113-.6113-1.4238-.9478-2.2881-.9478-1.7842,0-3.2354,1.4517-3.2354,3.2358s1.4512,3.2354,3.2354,3.2354c.8623,0,1.6738-.3354,2.2852-.9443.0977-.0977.0977-.2559,0-.354-.0967-.0972-.2549-.0977-.3535-.0005-.5166.5151-1.2021.7988-1.9316.7988-1.5078,0-2.7354-1.2271-2.7354-2.7354s1.2275-2.7358,2.7354-2.7358Z" style="fill:#fff;"/><path d="M26.8458,13.66c-.0947-.0391-.2012-.0171-.2725.0542l-2.7861,2.7856-2.8086-2.8091c-.0713-.0723-.1777-.0928-.2725-.0542-.0938.0386-.1543.1299-.1543.231v5.9712c0,.1382.1123.25.25.25s.25-.1118.25-.25v-5.3677l2.5586,2.5591c.0977.0977.2559.0977.3535,0l2.5361-2.5356v5.3442c0,.1382.1123.25.25.25s.25-.1118.25-.25v-5.9478c0-.1011-.0605-.1924-.1543-.231Z" style="fill:#fff;"/></svg>