<svg id="Layer_1" xmlns="http://www.w3.org/2000/svg" viewBox="0 0 32 32"><path d="M15.9997,10.7106c-7.6592,0-15.3486,7.2314-15.6719,7.5391-.0508.0474-.0781.1138-.0781.1826s.0293.1348.0801.1816c.3301.3076,8.1875,7.5371,15.6699,7.5371,7.4727,0,15.3389-7.2295,15.6699-7.5371.0508-.0469.0791-.1123.0801-.1807.001-.0688-.0273-.1348-.0762-.1826-.0781-.0752-7.915-7.54-15.6738-7.54ZM15.9997,25.6511c-6.6367,0-13.8408-6.0854-15.1279-7.2222,1.2676-1.1411,8.3359-7.2183,15.1279-7.2183,6.8809,0,13.876,6.0757,15.1289,7.2173-1.2852,1.1338-8.498,7.2231-15.1289,7.2231Z" style="fill:#fff;"/><path d="M10.3893,18.4338c0,3.0962,2.5186,5.6147,5.6152,5.6147s5.6152-2.5186,5.6152-5.6147c0-.3882-.0322-.7339-.0986-1.0562-.0023-.0115-.0144-.0164-.0181-.0272-.0032-.0099.0032-.0198-.0015-.0295-.0092-.0198-.0315-.0245-.0449-.0405-.0234-.0292-.0433-.0533-.0768-.0692-.0273-.013-.0529-.0123-.0831-.015-.0249-.0022-.0454-.019-.0715-.013-.0107.0023-.0151.0137-.0254.0172-.01.0032-.0205-.0032-.0303.0013-.2266.1069-.4824.1636-.7393.1636-.9932,0-1.8018-.8081-1.8018-1.8018,0-.5117.2227-1.0005.6123-1.3413.0088-.0077.0068-.0204.0143-.0289.0072-.0079.0194-.0074.0258-.0165.0135-.0195.0066-.0428.014-.0642.0115-.0322.0223-.0585.0201-.0925-.0017-.0327-.015-.0567-.0291-.0864-.0098-.0211-.0056-.0458-.0217-.0641-.0077-.0086-.02-.0067-.0286-.014-.0083-.0076-.0078-.0204-.0173-.027-.9541-.6606-2.0654-1.0098-3.2139-1.0098-3.0967,0-5.6152,2.5186-5.6152,5.6147ZM16.0045,13.319c.9502,0,1.8667.2749,2.6787.774-.3499.4111-.5547.9272-.5547,1.4706,0,1.269,1.0322,2.3018,2.3018,2.3018.2197,0,.4343-.0434.6421-.1056.0282.2105.0474.4299.0474.674,0,2.8203-2.2949,5.1147-5.1152,5.1147s-5.1152-2.2944-5.1152-5.1147,2.2949-5.1147,5.1152-5.1147Z" style="fill:#fff;"/><path d="M3.8024,9.8762c-.0977.0977-.0977.2559,0,.3535l2.584,2.5845c.0488.0488.1123.0732.1768.0732.0635,0,.1279-.0244.1768-.0732.0977-.0977.0977-.2559,0-.3535l-2.584-2.5845c-.0977-.0977-.2559-.0977-.3535,0Z" style="fill:#fff;"/><path d="M8.9625,7.6594c-.0977.0977-.0977.2559,0,.3535l2.5381,2.5381c.0488.0488.1123.0732.1768.0732s.1279-.0244.1768-.0732c.0977-.0977.0977-.2559,0-.3535l-2.5381-2.5381c-.0977-.0977-.2559-.0977-.3535,0Z" style="fill:#fff;"/><path d="M15.7497,6.0988v3.4927c0,.1382.1123.25.25.25s.25-.1118.25-.25v-3.4927c0-.1382-.1123-.25-.25-.25s-.25.1118-.25.25Z" style="fill:#fff;"/><path d="M27.8493,9.8762l-2.585,2.5845c-.0977.0977-.0977.2559,0,.3535.0488.0488.1123.0732.1768.0732s.1279-.0244.1768-.0732l2.585-2.5845c.0977-.0977.0977-.2559,0-.3535s-.2559-.0977-.3535,0Z" style="fill:#fff;"/><path d="M22.6891,7.6594l-2.5381,2.5381c-.0977.0977-.0977.2559,0,.3535.0488.0488.1123.0732.1768.0732s.1279-.0244.1768-.0732l2.5381-2.5381c.0977-.0977.0977-.2559,0-.3535s-.2559-.0977-.3535,0Z" style="fill:#fff;"/></svg>